<?xml version="1.0" encoding="UTF-8" standalone="no"?>
<!DOCTYPE svg PUBLIC "-//W3C//DTD SVG 1.1//EN" "http://www.w3.org/Graphics/SVG/1.1/DTD/svg11.dtd">
<svg width="100%" height="100%" viewBox="0 0 1280 720" version="1.1" xmlns="http://www.w3.org/2000/svg" xmlns:xlink="http://www.w3.org/1999/xlink" xml:space="preserve" xmlns:serif="http://www.serif.com/" style="fill-rule:evenodd;clip-rule:evenodd;stroke-linecap:round;stroke-linejoin:round;stroke-miterlimit:1.5;">
    <rect x="-0" y="-0" width="1280" height="720" style="fill:rgb(23,36,38);"/>
    <g id="Layer2">
        <path d="M601.867,517.558c6.559,9.418 4.237,22.388 -5.18,28.947c-9.418,6.558 -22.389,4.237 -28.947,-5.181c-6.559,-9.417 -4.237,-22.388 5.18,-28.946c9.418,-6.559 22.389,-4.238 28.947,5.18Z" style="fill:rgb(67,62,86);stroke:rgb(129,255,190);stroke-width:5.29px;"/>
        <path d="M419.228,413.634c6.559,9.418 4.237,22.389 -5.18,28.947c-9.418,6.559 -22.388,4.237 -28.947,-5.18c-6.558,-9.418 -4.237,-22.388 5.18,-28.947c9.418,-6.558 22.389,-4.237 28.947,5.18Z" style="fill:rgb(67,62,86);stroke:rgb(129,255,190);stroke-width:5.29px;"/>
        <path d="M486.82,440.669c6.559,9.418 4.237,22.389 -5.18,28.947c-9.418,6.559 -22.388,4.237 -28.947,-5.18c-6.559,-9.418 -4.237,-22.389 5.18,-28.947c9.418,-6.559 22.389,-4.237 28.947,5.18Z" style="fill:rgb(67,62,86);stroke:rgb(129,255,190);stroke-width:5.29px;"/>
        <path d="M554.412,455.218c6.559,9.418 4.237,22.388 -5.18,28.947c-9.418,6.558 -22.389,4.237 -28.947,-5.181c-6.559,-9.417 -4.237,-22.388 5.18,-28.946c9.418,-6.559 22.389,-4.238 28.947,5.18Z" style="fill:rgb(67,62,86);stroke:rgb(129,255,190);stroke-width:5.29px;"/>
        <path d="M781.558,519.874c6.558,9.418 4.237,22.388 -5.181,28.947c-9.417,6.558 -22.388,4.237 -28.946,-5.181c-6.559,-9.417 -4.238,-22.388 5.18,-28.946c9.418,-6.559 22.388,-4.238 28.947,5.18Z" style="fill:rgb(67,62,86);stroke:rgb(129,255,190);stroke-width:5.29px;"/>
        <path d="M802.35,449.897c6.558,9.418 4.237,22.388 -5.181,28.947c-9.417,6.558 -22.388,4.237 -28.946,-5.18c-6.559,-9.418 -4.238,-22.389 5.18,-28.947c9.418,-6.559 22.388,-4.237 28.947,5.18Z" style="fill:rgb(67,62,86);stroke:rgb(129,255,190);stroke-width:5.29px;"/>
        <path d="M723.343,455.514c6.559,9.417 4.238,22.388 -5.18,28.947c-9.418,6.558 -22.388,4.237 -28.947,-5.181c-6.558,-9.418 -4.237,-22.388 5.181,-28.947c9.417,-6.558 22.388,-4.237 28.946,5.181Z" style="fill:rgb(67,62,86);stroke:rgb(129,255,190);stroke-width:5.29px;"/>
        <path d="M862.06,485.613c6.558,9.418 4.237,22.388 -5.181,28.947c-9.417,6.558 -22.388,4.237 -28.946,-5.18c-6.559,-9.418 -4.238,-22.389 5.18,-28.947c9.418,-6.559 22.388,-4.237 28.947,5.18Z" style="fill:rgb(67,62,86);stroke:rgb(129,255,190);stroke-width:5.29px;"/>
        <path d="M891.077,413.93c6.559,9.418 4.237,22.388 -5.18,28.947c-9.418,6.558 -22.389,4.237 -28.947,-5.181c-6.559,-9.417 -4.237,-22.388 5.18,-28.946c9.418,-6.559 22.389,-4.238 28.947,5.18Z" style="fill:rgb(67,62,86);stroke:rgb(129,255,190);stroke-width:5.29px;"/>
        <path d="M891.077,550.454c6.559,9.417 4.237,22.388 -5.18,28.946c-9.418,6.559 -22.389,4.238 -28.947,-5.18c-6.559,-9.418 -4.237,-22.388 5.18,-28.947c9.418,-6.558 22.389,-4.237 28.947,5.181Z" style="fill:rgb(67,62,86);stroke:rgb(129,255,190);stroke-width:5.29px;"/>
        <path d="M986.778,508.87c6.558,9.418 4.237,22.388 -5.181,28.947c-9.418,6.558 -22.388,4.237 -28.947,-5.181c-6.558,-9.417 -4.237,-22.388 5.181,-28.947c9.417,-6.558 22.388,-4.237 28.947,5.181Z" style="fill:rgb(67,62,86);stroke:rgb(129,255,190);stroke-width:5.29px;"/>
        <path d="M936.164,460.969c6.558,9.418 4.237,22.388 -5.181,28.947c-9.417,6.558 -22.388,4.237 -28.946,-5.18c-6.559,-9.418 -4.238,-22.389 5.18,-28.947c9.418,-6.559 22.388,-4.237 28.947,5.18Z" style="fill:rgb(67,62,86);stroke:rgb(129,255,190);stroke-width:5.29px;"/>
        <path d="M521.229,517.594c6.558,9.417 4.237,22.388 -5.181,28.946c-9.417,6.559 -22.388,4.238 -28.946,-5.18c-6.559,-9.418 -4.238,-22.388 5.18,-28.947c9.418,-6.558 22.388,-4.237 28.947,5.181Z" style="fill:rgb(67,62,86);stroke:rgb(129,255,190);stroke-width:5.29px;"/>
        <path d="M390.68,540.666c6.559,9.417 4.238,22.388 -5.18,28.946c-9.418,6.559 -22.388,4.238 -28.947,-5.18c-6.558,-9.418 -4.237,-22.388 5.181,-28.947c9.417,-6.558 22.388,-4.237 28.946,5.181Z" style="fill:rgb(67,62,86);stroke:rgb(129,255,190);stroke-width:5.29px;"/>
        <path d="M315.485,508.87c6.559,9.418 4.238,22.388 -5.18,28.947c-9.418,6.558 -22.388,4.237 -28.947,-5.181c-6.558,-9.417 -4.237,-22.388 5.181,-28.947c9.417,-6.558 22.388,-4.237 28.946,5.181Z" style="fill:rgb(67,62,86);stroke:rgb(129,255,190);stroke-width:5.29px;"/>
        <path d="M369.889,467.286c6.558,9.418 4.237,22.388 -5.181,28.947c-9.417,6.558 -22.388,4.237 -28.947,-5.18c-6.558,-9.418 -4.237,-22.389 5.181,-28.947c9.417,-6.559 22.388,-4.237 28.947,5.18Z" style="fill:rgb(67,62,86);stroke:rgb(129,255,190);stroke-width:5.29px;"/>
        <path d="M649.471,467.286c6.558,9.418 4.237,22.388 -5.181,28.947c-9.417,6.558 -22.388,4.237 -28.946,-5.18c-6.559,-9.418 -4.238,-22.389 5.18,-28.947c9.418,-6.559 22.388,-4.237 28.947,5.18Z" style="fill:rgb(67,62,86);stroke:rgb(129,255,190);stroke-width:5.29px;"/>
        <path d="M445.236,496.802c6.559,9.417 4.238,22.388 -5.18,28.947c-9.418,6.558 -22.388,4.237 -28.947,-5.181c-6.558,-9.417 -4.237,-22.388 5.181,-28.947c9.417,-6.558 22.388,-4.237 28.946,5.181Z" style="fill:rgb(67,62,86);stroke:rgb(129,255,190);stroke-width:5.29px;"/>
        <path d="M570.803,583.02c6.559,9.417 4.238,22.388 -5.18,28.947c-9.418,6.558 -22.388,4.237 -28.947,-5.181c-6.558,-9.417 -4.237,-22.388 5.181,-28.947c9.417,-6.558 22.388,-4.237 28.946,5.181Z" style="fill:rgb(67,62,86);stroke:rgb(129,255,190);stroke-width:5.29px;"/>
        <path d="M464.003,561.458c6.558,9.417 4.237,22.388 -5.181,28.946c-9.417,6.559 -22.388,4.238 -28.946,-5.18c-6.559,-9.418 -4.238,-22.388 5.18,-28.947c9.418,-6.558 22.388,-4.237 28.947,5.181Z" style="fill:rgb(67,62,86);stroke:rgb(129,255,190);stroke-width:5.29px;"/>
        <path d="M646.296,575.568c6.559,9.418 4.237,22.388 -5.18,28.947c-9.418,6.558 -22.388,4.237 -28.947,-5.181c-6.558,-9.417 -4.237,-22.388 5.18,-28.946c9.418,-6.559 22.389,-4.238 28.947,5.18Z" style="fill:rgb(67,62,86);stroke:rgb(129,255,190);stroke-width:5.29px;"/>
        <path d="M729.684,589.374c6.559,9.418 4.237,22.389 -5.18,28.947c-9.418,6.559 -22.388,4.237 -28.947,-5.18c-6.558,-9.418 -4.237,-22.388 5.18,-28.947c9.418,-6.558 22.389,-4.237 28.947,5.18Z" style="fill:rgb(67,62,86);stroke:rgb(129,255,190);stroke-width:5.29px;"/>
        <path d="M697.792,529.662c6.558,9.417 4.237,22.388 -5.181,28.946c-9.417,6.559 -22.388,4.238 -28.946,-5.18c-6.559,-9.418 -4.238,-22.388 5.18,-28.947c9.418,-6.558 22.388,-4.237 28.947,5.181Z" style="fill:rgb(67,62,86);stroke:rgb(129,255,190);stroke-width:5.29px;"/>
        <path d="M813.072,575.568c6.559,9.418 4.237,22.388 -5.18,28.947c-9.418,6.558 -22.389,4.237 -28.947,-5.181c-6.559,-9.417 -4.237,-22.388 5.18,-28.946c9.418,-6.559 22.389,-4.238 28.947,5.18Z" style="fill:rgb(67,62,86);stroke:rgb(129,255,190);stroke-width:5.29px;"/>
        <path d="M756.11,119c46.01,66.066 29.726,157.057 -36.341,203.066c-66.066,46.009 -157.057,29.725 -203.066,-36.341c-46.009,-66.067 -29.725,-157.058 36.341,-203.067c66.066,-46.009 157.057,-29.725 203.066,36.342Z" style="fill:rgb(67,62,86);stroke:rgb(203,100,136);stroke-width:5.29px;"/>
    </g>
</svg>
